<svg width="30" height="28" viewBox="0 0 30 28" fill="none" xmlns="http://www.w3.org/2000/svg">
<path fill-rule="evenodd" clip-rule="evenodd" d="M12.0915 14C12.0915 13.4477 12.3024 13 12.5625 13H18.9487C19.2088 13 19.4197 13.4477 19.4197 14C19.4197 14.5523 19.2088 15 18.9487 15H12.5625C12.3024 15 12.0915 14.5523 12.0915 14Z" fill="white"/>
<path fill-rule="evenodd" clip-rule="evenodd" d="M15.9714 10.2563C16.3291 9.91457 16.9091 9.91457 17.2669 10.2563L20.3935 13.2429C20.7513 13.5847 20.7513 14.1387 20.3935 14.4804L17.2669 17.467C16.9091 17.8088 16.3291 17.8088 15.9714 17.467C15.6137 17.1253 15.6137 16.5713 15.9714 16.2296L18.4504 13.8617L15.9714 11.4937C15.6137 11.152 15.6137 10.598 15.9714 10.2563Z" fill="white"/>
</svg>
