<svg width="110" height="28" viewBox="0 0 110 28" fill="none" xmlns="http://www.w3.org/2000/svg">
<path fill-rule="evenodd" clip-rule="evenodd" d="M15.9714 10.2563C16.3291 9.91457 16.9091 9.91457 17.2669 10.2563L20.3935 13.2429C20.7513 13.5847 20.7513 14.1387 20.3935 14.4804L17.2669 17.467C16.9091 17.8088 16.3291 17.8088 15.9714 17.467C15.6137 17.1253 15.6137 16.5713 15.9714 16.2296L18.4504 13.8617L15.9714 11.4937C15.6137 11.152 15.6137 10.598 15.9714 10.2563Z" fill="white"/>
<path fill-rule="evenodd" clip-rule="evenodd" d="M12.0915 14C12.0915 13.4477 12.3024 13 12.5625 13H18.9487C19.2088 13 19.4197 13.4477 19.4197 14C19.4197 14.5523 19.2088 15 18.9487 15H12.5625C12.3024 15 12.0915 14.5523 12.0915 14Z" fill="white"/>
<path d="M28.394 8.768C28.022 8.768 27.71 8.642 27.458 8.39C27.206 8.138 27.08 7.826 27.08 7.454C27.08 7.082 27.206 6.77 27.458 6.518C27.71 6.266 28.022 6.14 28.394 6.14C28.754 6.14 29.06 6.266 29.312 6.518C29.564 6.77 29.69 7.082 29.69 7.454C29.69 7.826 29.564 8.138 29.312 8.39C29.06 8.642 28.754 8.768 28.394 8.768ZM29.402 10.082V20H27.35V10.082H29.402ZM34.1481 11.522C34.4481 11.018 34.8441 10.628 35.3361 10.352C35.8401 10.064 36.4341 9.92 37.1181 9.92V12.044H36.5961C35.7921 12.044 35.1801 12.248 34.7601 12.656C34.3521 13.064 34.1481 13.772 34.1481 14.78V20H32.0961V10.082H34.1481V11.522ZM48.0943 14.798C48.0943 15.17 48.0703 15.506 48.0223 15.806H40.4443C40.5043 16.598 40.7983 17.234 41.3263 17.714C41.8543 18.194 42.5023 18.434 43.2703 18.434C44.3743 18.434 45.1543 17.972 45.6103 17.048H47.8243C47.5243 17.96 46.9783 18.71 46.1863 19.298C45.4063 19.874 44.4343 20.162 43.2703 20.162C42.3223 20.162 41.4703 19.952 40.7143 19.532C39.9703 19.1 39.3823 18.5 38.9503 17.732C38.5303 16.952 38.3203 16.052 38.3203 15.032C38.3203 14.012 38.5243 13.118 38.9323 12.35C39.3523 11.57 39.9343 10.97 40.6783 10.55C41.4343 10.13 42.2983 9.92 43.2703 9.92C44.2063 9.92 45.0403 10.124 45.7723 10.532C46.5043 10.94 47.0743 11.516 47.4823 12.26C47.8903 12.992 48.0943 13.838 48.0943 14.798ZM45.9523 14.15C45.9403 13.394 45.6703 12.788 45.1423 12.332C44.6143 11.876 43.9603 11.648 43.1803 11.648C42.4723 11.648 41.8663 11.876 41.3623 12.332C40.8583 12.776 40.5583 13.382 40.4623 14.15H45.9523ZM49.4297 15.032C49.4297 14.012 49.6337 13.118 50.0417 12.35C50.4617 11.57 51.0377 10.97 51.7697 10.55C52.5017 10.13 53.3417 9.92 54.2897 9.92C55.4897 9.92 56.4797 10.208 57.2597 10.784C58.0517 11.348 58.5857 12.158 58.8617 13.214H56.6477C56.4677 12.722 56.1797 12.338 55.7837 12.062C55.3877 11.786 54.8897 11.648 54.2897 11.648C53.4497 11.648 52.7777 11.948 52.2737 12.548C51.7817 13.136 51.5357 13.964 51.5357 15.032C51.5357 16.1 51.7817 16.934 52.2737 17.534C52.7777 18.134 53.4497 18.434 54.2897 18.434C55.4777 18.434 56.2637 17.912 56.6477 16.868H58.8617C58.5737 17.876 58.0337 18.68 57.2417 19.28C56.4497 19.868 55.4657 20.162 54.2897 20.162C53.3417 20.162 52.5017 19.952 51.7697 19.532C51.0377 19.1 50.4617 18.5 50.0417 17.732C49.6337 16.952 49.4297 16.052 49.4297 15.032ZM63.3006 11.756V17.246C63.3006 17.618 63.3846 17.888 63.5526 18.056C63.7326 18.212 64.0326 18.29 64.4526 18.29H65.7126V20H64.0926C63.1686 20 62.4606 19.784 61.9686 19.352C61.4766 18.92 61.2306 18.218 61.2306 17.246V11.756H60.0606V10.082H61.2306V7.616H63.3006V10.082H65.7126V11.756H63.3006Z" fill="#B6F72B"/>
<path d="M76.3519 11.216C76.3519 11.852 76.2019 12.452 75.9019 13.016C75.6019 13.58 75.1219 14.042 74.4619 14.402C73.8019 14.75 72.9559 14.924 71.9239 14.924H69.6559V20H67.6039V7.49H71.9239C72.8839 7.49 73.6939 7.658 74.3539 7.994C75.0259 8.318 75.5239 8.762 75.8479 9.326C76.1839 9.89 76.3519 10.52 76.3519 11.216ZM71.9239 13.25C72.7039 13.25 73.2859 13.076 73.6699 12.728C74.0539 12.368 74.2459 11.864 74.2459 11.216C74.2459 9.848 73.4719 9.164 71.9239 9.164H69.6559V13.25H71.9239ZM77.625 14.996C77.625 14 77.829 13.118 78.237 12.35C78.657 11.582 79.221 10.988 79.929 10.568C80.649 10.136 81.441 9.92 82.305 9.92C83.085 9.92 83.763 10.076 84.339 10.388C84.927 10.688 85.395 11.066 85.743 11.522V10.082H87.813V20H85.743V18.524C85.395 18.992 84.921 19.382 84.321 19.694C83.721 20.006 83.037 20.162 82.269 20.162C81.417 20.162 80.637 19.946 79.929 19.514C79.221 19.07 78.657 18.458 78.237 17.678C77.829 16.886 77.625 15.992 77.625 14.996ZM85.743 15.032C85.743 14.348 85.599 13.754 85.311 13.25C85.035 12.746 84.669 12.362 84.213 12.098C83.757 11.834 83.265 11.702 82.737 11.702C82.209 11.702 81.717 11.834 81.261 12.098C80.805 12.35 80.433 12.728 80.145 13.232C79.869 13.724 79.731 14.312 79.731 14.996C79.731 15.68 79.869 16.28 80.145 16.796C80.433 17.312 80.805 17.708 81.261 17.984C81.729 18.248 82.221 18.38 82.737 18.38C83.265 18.38 83.757 18.248 84.213 17.984C84.669 17.72 85.035 17.336 85.311 16.832C85.599 16.316 85.743 15.716 85.743 15.032ZM99.4362 10.082L93.3522 24.662H91.2282L93.2442 19.838L89.3382 10.082H91.6242L94.4142 17.642L97.3122 10.082H99.4362Z" fill="white"/>
<path fill-rule="evenodd" clip-rule="evenodd" d="M13.7402 4.66663C13.7402 4.18338 14.1503 3.79163 14.6562 3.79163C17.5623 3.79163 20.2396 4.73531 22.1969 6.51139C24.1616 8.29405 25.3431 10.8635 25.3431 14C25.3431 17.1365 24.1616 19.7059 22.1969 21.4885C20.2396 23.2646 17.5623 24.2083 14.6562 24.2083C14.1503 24.2083 13.7402 23.8165 13.7402 23.3333C13.7402 22.85 14.1503 22.4583 14.6562 22.4583C17.1486 22.4583 19.3567 21.652 20.9352 20.2197C22.5064 18.7941 23.5111 16.6968 23.5111 14C23.5111 11.3031 22.5064 9.20586 20.9352 7.78019C19.3567 6.34794 17.1486 5.54163 14.6562 5.54163C14.1503 5.54163 13.7402 5.14988 13.7402 4.66663Z" fill="#B6F72B" stroke="#B6F72B" stroke-miterlimit="10" stroke-linecap="round" stroke-linejoin="round"/>
</svg>
