<svg width="134" height="28" viewBox="0 0 134 28" fill="none" xmlns="http://www.w3.org/2000/svg">
<path fill-rule="evenodd" clip-rule="evenodd" d="M13.7402 4.66663C13.7402 4.18338 14.1503 3.79163 14.6562 3.79163C17.5623 3.79163 20.2396 4.73531 22.1969 6.51139C24.1616 8.29405 25.3431 10.8635 25.3431 14C25.3431 17.1365 24.1616 19.7059 22.1969 21.4885C20.2396 23.2646 17.5623 24.2083 14.6562 24.2083C14.1503 24.2083 13.7402 23.8165 13.7402 23.3333C13.7402 22.85 14.1503 22.4583 14.6562 22.4583C17.1486 22.4583 19.3567 21.652 20.9352 20.2197C22.5064 18.7941 23.5111 16.6968 23.5111 14C23.5111 11.3031 22.5064 9.20586 20.9352 7.78019C19.3567 6.34794 17.1486 5.54163 14.6562 5.54163C14.1503 5.54163 13.7402 5.14988 13.7402 4.66663Z" fill="#B6F72B" stroke="#B6F72B" stroke-miterlimit="10" stroke-linecap="round" stroke-linejoin="round"/>
<path fill-rule="evenodd" clip-rule="evenodd" d="M15.9714 10.2563C16.3291 9.91457 16.9091 9.91457 17.2669 10.2563L20.3935 13.2429C20.7513 13.5847 20.7513 14.1387 20.3935 14.4804L17.2669 17.467C16.9091 17.8088 16.3291 17.8088 15.9714 17.467C15.6137 17.1253 15.6137 16.5713 15.9714 16.2296L18.4504 13.8617L15.9714 11.4937C15.6137 11.152 15.6137 10.598 15.9714 10.2563Z" fill="white"/>
<path fill-rule="evenodd" clip-rule="evenodd" d="M12.0915 14C12.0915 13.4477 12.3024 13 12.5625 13H18.9487C19.2088 13 19.4197 13.4477 19.4197 14C19.4197 14.5523 19.2088 15 18.9487 15H12.5625C12.3024 15 12.0915 14.5523 12.0915 14Z" fill="white"/>
<path d="M28.5659 8.768C28.1939 8.768 27.8819 8.642 27.6299 8.39C27.3779 8.138 27.2519 7.826 27.2519 7.454C27.2519 7.082 27.3779 6.77 27.6299 6.518C27.8819 6.266 28.1939 6.14 28.5659 6.14C28.9259 6.14 29.2319 6.266 29.4839 6.518C29.7359 6.77 29.8619 7.082 29.8619 7.454C29.8619 7.826 29.7359 8.138 29.4839 8.39C29.2319 8.642 28.9259 8.768 28.5659 8.768ZM29.5739 10.082V20H27.5219V10.082H29.5739ZM34.32 11.522C34.62 11.018 35.016 10.628 35.508 10.352C36.012 10.064 36.606 9.92 37.29 9.92V12.044H36.768C35.964 12.044 35.352 12.248 34.932 12.656C34.524 13.064 34.32 13.772 34.32 14.78V20H32.268V10.082H34.32V11.522ZM48.2662 14.798C48.2662 15.17 48.2422 15.506 48.1942 15.806H40.6162C40.6762 16.598 40.9702 17.234 41.4982 17.714C42.0262 18.194 42.6742 18.434 43.4422 18.434C44.5462 18.434 45.3262 17.972 45.7822 17.048H47.9962C47.6962 17.96 47.1502 18.71 46.3582 19.298C45.5782 19.874 44.6062 20.162 43.4422 20.162C42.4942 20.162 41.6422 19.952 40.8862 19.532C40.1422 19.1 39.5542 18.5 39.1222 17.732C38.7022 16.952 38.4922 16.052 38.4922 15.032C38.4922 14.012 38.6962 13.118 39.1042 12.35C39.5242 11.57 40.1062 10.97 40.8502 10.55C41.6062 10.13 42.4702 9.92 43.4422 9.92C44.3782 9.92 45.2122 10.124 45.9442 10.532C46.6762 10.94 47.2462 11.516 47.6542 12.26C48.0622 12.992 48.2662 13.838 48.2662 14.798ZM46.1242 14.15C46.1122 13.394 45.8422 12.788 45.3142 12.332C44.7862 11.876 44.1322 11.648 43.3522 11.648C42.6442 11.648 42.0382 11.876 41.5342 12.332C41.0302 12.776 40.7302 13.382 40.6342 14.15H46.1242ZM49.6015 15.032C49.6015 14.012 49.8055 13.118 50.2135 12.35C50.6335 11.57 51.2095 10.97 51.9415 10.55C52.6735 10.13 53.5135 9.92 54.4615 9.92C55.6615 9.92 56.6515 10.208 57.4315 10.784C58.2235 11.348 58.7575 12.158 59.0335 13.214H56.8195C56.6395 12.722 56.3515 12.338 55.9555 12.062C55.5595 11.786 55.0615 11.648 54.4615 11.648C53.6215 11.648 52.9495 11.948 52.4455 12.548C51.9535 13.136 51.7075 13.964 51.7075 15.032C51.7075 16.1 51.9535 16.934 52.4455 17.534C52.9495 18.134 53.6215 18.434 54.4615 18.434C55.6495 18.434 56.4355 17.912 56.8195 16.868H59.0335C58.7455 17.876 58.2055 18.68 57.4135 19.28C56.6215 19.868 55.6375 20.162 54.4615 20.162C53.5135 20.162 52.6735 19.952 51.9415 19.532C51.2095 19.1 50.6335 18.5 50.2135 17.732C49.8055 16.952 49.6015 16.052 49.6015 15.032ZM63.4725 11.756V17.246C63.4725 17.618 63.5565 17.888 63.7245 18.056C63.9045 18.212 64.2045 18.29 64.6245 18.29H65.8845V20H64.2645C63.3405 20 62.6325 19.784 62.1405 19.352C61.6485 18.92 61.4025 18.218 61.4025 17.246V11.756H60.2325V10.082H61.4025V7.616H63.4725V10.082H65.8845V11.756H63.4725Z" fill="#B6F72B"/>
<path d="M76.5238 11.216C76.5238 11.852 76.3738 12.452 76.0738 13.016C75.7738 13.58 75.2938 14.042 74.6338 14.402C73.9738 14.75 73.1278 14.924 72.0958 14.924H69.8278V20H67.7758V7.49H72.0958C73.0558 7.49 73.8658 7.658 74.5258 7.994C75.1978 8.318 75.6958 8.762 76.0198 9.326C76.3558 9.89 76.5238 10.52 76.5238 11.216ZM72.0958 13.25C72.8758 13.25 73.4578 13.076 73.8418 12.728C74.2258 12.368 74.4178 11.864 74.4178 11.216C74.4178 9.848 73.6438 9.164 72.0958 9.164H69.8278V13.25H72.0958ZM77.7969 14.996C77.7969 14 78.0009 13.118 78.4089 12.35C78.8289 11.582 79.3929 10.988 80.1009 10.568C80.8209 10.136 81.6129 9.92 82.4769 9.92C83.2569 9.92 83.9349 10.076 84.5109 10.388C85.0989 10.688 85.5669 11.066 85.9149 11.522V10.082H87.9849V20H85.9149V18.524C85.5669 18.992 85.0929 19.382 84.4929 19.694C83.8929 20.006 83.2089 20.162 82.4409 20.162C81.5889 20.162 80.8089 19.946 80.1009 19.514C79.3929 19.07 78.8289 18.458 78.4089 17.678C78.0009 16.886 77.7969 15.992 77.7969 14.996ZM85.9149 15.032C85.9149 14.348 85.7709 13.754 85.4829 13.25C85.2069 12.746 84.8409 12.362 84.3849 12.098C83.9289 11.834 83.4369 11.702 82.9089 11.702C82.3809 11.702 81.8889 11.834 81.4329 12.098C80.9769 12.35 80.6049 12.728 80.3169 13.232C80.0409 13.724 79.9029 14.312 79.9029 14.996C79.9029 15.68 80.0409 16.28 80.3169 16.796C80.6049 17.312 80.9769 17.708 81.4329 17.984C81.9009 18.248 82.3929 18.38 82.9089 18.38C83.4369 18.38 83.9289 18.248 84.3849 17.984C84.8409 17.72 85.2069 17.336 85.4829 16.832C85.7709 16.316 85.9149 15.716 85.9149 15.032ZM99.6081 10.082L93.5241 24.662H91.4001L93.4161 19.838L89.5101 10.082H91.7961L94.5861 17.642L97.4841 10.082H99.6081Z" fill="white"/>
</svg>
